<svg xmlns="http://www.w3.org/2000/svg" xmlns:dc="http://purl.org/dc/elements/1.1/" xmlns:cc="http://creativecommons.org/ns#" xmlns:rdf="http://www.w3.org/1999/02/22-rdf-syntax-ns#" xmlns:svg="http://www.w3.org/2000/svg" id="svg1817" height="512" viewBox="0 0 16.933333 16.933334" width="512"><g id="layer1" transform="translate(0 -280.067)"><path id="path2622" d="m4.4932687 280.59169c-.5835174-.00022-1.055542.48193-1.0547165 1.06247l.00619 3.70313c-.00659.36072.5385726.35859.5291667-.002l-.00619-3.70107c-.0005292-.29894.2295921-.53342.5255498-.5333l10.8515333.004c.20288 0 .322038.0617.404627.15193.08259.0902.13089.22278.130742.38085l-.0062 5.81464c-.000264.29724-.233426.53348-.529166.5333l-3.966681-.002c-.182012-.001-.310819.17754-.252183.34985l.285256.85525-1.7399476-1.16014c-.0434-.0292-.094472-.0448-.1467593-.045h-5.025525c-.3010535 0-.5209884-.22033-.521417-.52141l-.00212-1.09761c.00659-.36072-.5385727-.35859-.5291667.002l.00106.55811-1.8598198.001c-.3262709 0-.6083643.12275-.793234.32453-.1848696.20178-.27103385.46818-.27078249.7382l.005683 5.81489c.00079375.58218.47657269 1.06287 1.06039959 1.06247l3.0700981-.002-.4128955 1.23869c-.079812.23911.1882483.44381.3979095.30385l2.3145856-1.54306h5.4751186c.578426 0 1.050274-.47116 1.051099-1.04955l.0057-3.98683c.0054-.35779-.533866-.35831-.529167-.00053l-.0057 3.98632c-.000423.3011-.220874.52143-.521932.52143h-5.5552139c-.052234 0-.1032987.0155-.1467618.0444l-1.739429 1.15962.2852552-.85577c.057139-.17139-.07048-.34838-.2511478-.34829l-3.437517.003c-.2956401.0002-.5308758-.23705-.531233-.53434l-.00569-5.81463c-.0000291-.15775.049221-.29023.1317731-.38034.082666-.0902.2001864-.15245.4030821-.15245l1.8608676.004c.0007937.58356.4721569 1.05369 1.0505837 1.05369h4.9454329l2.3145889 1.54305c.209243.13999.477289-.0637.398425-.30282l-.413927-1.24023 3.599262.002c.583734.00034 1.060376-.48024 1.060918-1.06247l.0057-5.81411c.000251-.2697-.08445-.53662-.269235-.73846-.184391-.20141-.467818-.32401-.79429-.32453zm5.3304207 1.64434c.2546266-.12033.170005-.50231-.111623-.50384-.04191-.00058-.08335.009-.120922.0274-.2752994.13392-.4817987.38576-.5601736.68729h-1.6236739c-.1008671.0002-.1928521.0577-.2371936.14832 0 0-1.2802976 2.03478-1.3094812 2.09392-.029184.0591-.04418.14352-.00982.27751.034364.13398.077727.27493.1932702.51004.07267.14788.1635072.3009.2909384.4315.1274313.1306.3082634.24427.5276163.24391l1.0583333-.002c.2217261-.00034.4078684-.11012.5410518-.2403.1331833-.13017.2295604-.28326.3048926-.43149.1205044-.23713.1628246-.40446.1989534-.5116.036129-.10714.045347-.19301-.00958-.27673l-1.0710016-1.71334h1.1477334c.096581.36967.3873871.66048.7570605.75706v2.94814h-1.6014253c-.357378.0258-.3313509.53834.013441.52917h3.7031319c.360696.008.360696-.53718 0-.52917h-1.585431v-2.94866c.368697-.0971.658593-.38756.754991-.75654h1.148252s-1.015388 1.60838-1.068927 1.71101c-.05354.10263-.02561.21106-.000259.31884.02535.10778.0818.26763.181385.47026.07267.14787.163504.30089.290938.43149.127432.13061.307745.24427.527098.24392l1.060918-.002c.221726-.00034.407869-.11012.541052-.24029s.227494-.28327.302824-.4315c.123356-.24273.180538-.43816.202573-.51832.02204-.0802.03409-.17973-.01035-.2638-.01958-.0371-1.325491-2.12416-1.325491-2.12416-.04778-.077-.131614-.12416-.230219-.12506h-1.618247c-.02856-.10987-.07211-.21368-.131776-.30644-.191548-.29696-.636998-.01-.44545.28732.05307.0825.08423.1783.08423.28474 0 .28638-.22011.52675-.52891.5271-.3088006.00034-.5461061-.2407-.5299407-.52717.0000039-.21167.1231811-.39089.2992111-.47653zm-2.4143181.97462.8449098 1.35341h-1.6913701zm5.2911477.002.84491 1.35133h-1.69137zm-6.2363109 1.88102h1.8846404c-.087789.18333-.1467618.52917-.4278815.52917h-1.0583334c-.2430462.001-.3097212-.32761-.3984255-.52917zm5.2927009 0h1.884638c-.0975.19683-.147796.52917-.429429.52917h-1.058852c-.247015 0-.313751-.33148-.396357-.52917zm-8.1876156 5.29063c-.3531209 0-.3531209.52969 0 .52969h6.8791666c.353121 0 .353121-.52969 0-.52969zm0 1.05885c-.3450352.008-.3450352.52151 0 .52917h6.8791666c.345035-.008.345035-.52151 0-.52917zm0 1.05834c-.3531209 0-.3531209.52968 0 .52968h6.8791666c.353121 0 .353121-.52968 0-.52968z"></path></g></svg>